<?xml version="1.0" encoding="UTF-8"?>
<svg version="1.1" xmlns="http://www.w3.org/2000/svg" width="500" height="500">
<path d="M0 0 C165 0 330 0 500 0 C500 165 500 330 500 500 C335 500 170 500 0 500 C0 335 0 170 0 0 Z " fill="#FEFEFE" transform="translate(0,0)"/>
<path d="M0 0 C1.9351987 0.77659273 3.87254509 1.54786596 5.8125 2.3125 C7.20870058 2.87408783 8.60468879 3.43620608 10 4 C10 4.66 10 5.32 10 6 C10.55558594 6.25910156 11.11117187 6.51820313 11.68359375 6.78515625 C26.82786005 14.72759608 37.36398354 27.65659744 46 42 C46.57234375 42.94488281 47.1446875 43.88976562 47.734375 44.86328125 C50.63367741 50.09994262 52.23192582 54.98301493 51 61 C48.55907185 63.44092815 47.22992296 63.24515894 43.89736938 63.27789307 C43.20162811 63.2738446 42.50588684 63.26979614 41.7890625 63.265625 C40.70399918 63.26849518 40.70399918 63.26849518 39.59701538 63.27142334 C38.05865127 63.27278664 36.52027571 63.26908009 34.98193359 63.26074219 C32.66866818 63.25019903 30.35620737 63.26055038 28.04296875 63.2734375 C6.45709988 63.3019731 6.45709988 63.3019731 -0.26171875 58.828125 C-1.06222656 57.97734375 -1.86273438 57.1265625 -2.6875 56.25 C-10.40162773 48.6129035 -16.83935473 44.65170478 -27.375 41.76171875 C-30 41 -30 41 -31 40 C-44.89762887 38.46230717 -57.49665976 39.91369519 -68.9375 48.4375 C-70.31013161 49.60360723 -71.66596106 50.78993235 -73 52 C-73.58652344 52.50660156 -74.17304688 53.01320312 -74.77734375 53.53515625 C-78.57948064 57.02122308 -80.2907057 60.25196028 -82 65 C-82.66 65 -83.32 65 -84 65 C-84.4803318 66.58298026 -84.95921612 68.16639978 -85.4375 69.75 C-85.70433594 70.63171875 -85.97117188 71.5134375 -86.24609375 72.421875 C-89.65598249 84.08263442 -90.2527772 97.63539097 -84.5625 108.625 C-78.6614441 119.29255004 -71.68076903 128.61971161 -60 133 C-59.01 133.515625 -58.02 134.03125 -57 134.5625 C-45.7406074 139.95762562 -30.91269561 136.89251335 -19 135 C-18.67 134.01 -18.34 133.02 -18 132 C-15.56640625 130.17578125 -15.56640625 130.17578125 -12.5625 128.3125 C-11.07943359 127.37857422 -11.07943359 127.37857422 -9.56640625 126.42578125 C-7 125 -7 125 -5 125 C-5 124.01 -5 123.02 -5 122 C-5.85231201 122.0314209 -6.70462402 122.0628418 -7.58276367 122.09521484 C-10.76024304 122.197777 -13.93687639 122.27283585 -17.11547852 122.32958984 C-18.4881575 122.3596733 -19.86064563 122.40055334 -21.23266602 122.45263672 C-23.21024621 122.52580073 -25.18925709 122.55633084 -27.16796875 122.5859375 C-28.35672607 122.6173584 -29.5454834 122.6487793 -30.77026367 122.68115234 C-34.37228697 121.92148457 -35.9253929 120.75811107 -38.08711243 117.77362061 C-39.65535704 114.72672738 -39.61254138 111.97549485 -39.59375 108.58984375 C-39.59379028 107.89991837 -39.59383057 107.20999298 -39.59387207 106.49916077 C-39.58853998 105.049396 -39.57105613 103.5996297 -39.54199219 102.15014648 C-39.50004153 99.93968854 -39.50093678 97.73227451 -39.5078125 95.52148438 C-39.41058408 82.41058408 -39.41058408 82.41058408 -34 77 C-31.28672792 76.78048165 -28.67383593 76.68542951 -25.95776367 76.67773438 C-25.12669601 76.66780457 -24.29562836 76.65787476 -23.43937683 76.64764404 C-20.68220744 76.6183665 -17.92526823 76.60479094 -15.16796875 76.59375 C-13.25466402 76.58224902 -11.34135937 76.57073353 -9.42805481 76.5592041 C-5.41223067 76.53817379 -1.39648672 76.52649558 2.61938477 76.51953125 C7.76470194 76.50856497 12.90895963 76.46052432 18.05394459 76.40358734 C22.00794055 76.36633083 25.96168157 76.35592326 29.91583824 76.3528595 C31.81249466 76.34680503 33.70914651 76.33074266 35.60563087 76.30448914 C38.26109833 76.27035614 40.91398199 76.2741263 43.56958008 76.28710938 C44.74414764 76.25946503 44.74414764 76.25946503 45.94244385 76.23126221 C48.88417337 76.27629502 51.26611713 76.40689129 53.6087389 78.30014896 C56.20447231 81.30539207 57.6327411 83.67048946 57.62890625 87.65234375 C57.63664062 88.92911987 57.63664062 88.92911987 57.64453125 90.23168945 C57.60392578 91.57106567 57.60392578 91.57106567 57.5625 92.9375 C57.54445313 93.86973389 57.52640625 94.80196777 57.5078125 95.76245117 C57.05040449 109.0604454 52.9274759 120.01048215 46.70703125 131.63671875 C45.3719102 134.26724329 44.61709261 136.19186472 44 139 C43.34 139 42.68 139 42 139 C41.76023437 139.721875 41.52046875 140.44375 41.2734375 141.1875 C39.81658551 144.40508721 38.04049184 146.43203525 35.625 149 C33.34280564 151.44248226 31.13243462 153.82570071 29.109375 156.48828125 C26.58717381 159.49156896 23.72791508 161.82456582 20.625 164.1875 C20.07328125 164.62513672 19.5215625 165.06277344 18.953125 165.51367188 C15.44988696 168.20688891 12.261481 169.84772644 8 171 C8 171.66 8 172.32 8 173 C3.56078224 176.49841023 -0.78223799 178.1352451 -6.1875 179.625 C-7.22487305 179.93050781 -7.22487305 179.93050781 -8.28320312 180.2421875 C-18.38462961 183.1256688 -28.12248152 184.3657328 -38.625 184.3125 C-39.76001953 184.30831055 -40.89503906 184.30412109 -42.06445312 184.29980469 C-54.99050008 184.12750627 -67.23798563 182.66383558 -79 177 C-80.2458124 176.44988323 -81.49193306 175.90046429 -82.73828125 175.3515625 C-92.43579592 170.94086211 -99.56602985 165.57100186 -107 158 C-107.66386719 157.38253906 -108.32773438 156.76507813 -109.01171875 156.12890625 C-114.07713582 151.38221205 -118.26866223 145.84414721 -122 140 C-122 139.34 -122 138.68 -122 138 C-122.99 137.67 -123.98 137.34 -125 137 C-126.02734375 134.99609375 -126.02734375 134.99609375 -126.9375 132.4375 C-128.10222397 129.20551704 -129.4028831 126.21136857 -131.01953125 123.1875 C-133.11370359 119.04634108 -134.07861238 115.13518064 -134.75 110.5625 C-134.86996338 109.75756104 -134.98992676 108.95262207 -135.11352539 108.12329102 C-137.96993754 86.63422025 -136.31391519 66.07722074 -128 46 C-127.34 46 -126.68 46 -126 46 C-125.90460938 45.28972656 -125.80921875 44.57945312 -125.7109375 43.84765625 C-121.33670239 26.32668156 -100.94523114 11.74070662 -86.4375 2.75 C-59.48058427 -12.1290127 -27.85454457 -12.22976541 0 0 Z " fill="#3E5283" transform="translate(290,135)"/>
<path d="M0 0 C1.9351987 0.77659273 3.87254509 1.54786596 5.8125 2.3125 C7.20870058 2.87408783 8.60468879 3.43620608 10 4 C10 4.66 10 5.32 10 6 C10.55558594 6.25910156 11.11117187 6.51820313 11.68359375 6.78515625 C26.82786005 14.72759608 37.36398354 27.65659744 46 42 C46.57234375 42.94488281 47.1446875 43.88976562 47.734375 44.86328125 C50.63367741 50.09994262 52.23192582 54.98301493 51 61 C48.55907185 63.44092815 47.22992296 63.24515894 43.89736938 63.27789307 C43.20162811 63.2738446 42.50588684 63.26979614 41.7890625 63.265625 C40.70399918 63.26849518 40.70399918 63.26849518 39.59701538 63.27142334 C38.05865127 63.27278664 36.52027571 63.26908009 34.98193359 63.26074219 C32.66866818 63.25019903 30.35620737 63.26055038 28.04296875 63.2734375 C6.45709988 63.3019731 6.45709988 63.3019731 -0.26171875 58.828125 C-1.06222656 57.97734375 -1.86273438 57.1265625 -2.6875 56.25 C-10.40162773 48.6129035 -16.83935473 44.65170478 -27.375 41.76171875 C-30 41 -30 41 -31 40 C-40.47395097 39.06358358 -50.75332346 38.69526169 -59.3203125 43.22265625 C-59.87460938 43.47917969 -60.42890625 43.73570312 -61 44 C-61.66 43.67 -62.32 43.34 -63 43 C-69.4059862 42.55045711 -74.05410383 43.72925131 -80 46 C-81.02609375 46.35191406 -82.0521875 46.70382813 -83.109375 47.06640625 C-90.64012329 49.7445949 -96.75028297 53.0303455 -103 58 C-103.69738281 58.53367187 -104.39476562 59.06734375 -105.11328125 59.6171875 C-116.23200315 68.64170353 -124.77011824 82.61897734 -126.75 96.890625 C-127.90264187 111.2266082 -126.26696717 124.02788148 -123 138 C-125.73216378 136.63391811 -125.82813335 135.2709614 -126.875 132.4375 C-128.07094821 129.21647983 -129.40696686 126.2124286 -131.0234375 123.1875 C-133.11401096 119.04672478 -134.07888798 115.1333036 -134.75 110.5625 C-134.86996338 109.75756104 -134.98992676 108.95262207 -135.11352539 108.12329102 C-137.96993754 86.63422025 -136.31391519 66.07722074 -128 46 C-127.34 46 -126.68 46 -126 46 C-125.90460938 45.28972656 -125.80921875 44.57945312 -125.7109375 43.84765625 C-121.33670239 26.32668156 -100.94523114 11.74070662 -86.4375 2.75 C-59.48058427 -12.1290127 -27.85454457 -12.22976541 0 0 Z " fill="#9BB14E" transform="translate(290,135)"/>
<path d="M0 0 C1.18529297 0.01353516 1.18529297 0.01353516 2.39453125 0.02734375 C3.28205078 0.04474609 3.28205078 0.04474609 4.1875 0.0625 C0.10868485 4.27727565 -4.22940528 8.17053395 -8.60546875 12.07421875 C-12.38105214 15.47558503 -13.8853082 18.33212013 -15.8125 23.0625 C-16.4725 23.0625 -17.1325 23.0625 -17.8125 23.0625 C-18.2928318 24.64548026 -18.77171612 26.22889978 -19.25 27.8125 C-19.51683594 28.69421875 -19.78367188 29.5759375 -20.05859375 30.484375 C-23.59979327 42.59417647 -23.95468301 55.94024586 -17.8125 67.1875 C-17.07033723 68.46552093 -16.32090171 69.73936072 -15.5625 71.0078125 C-13.8125 74.0625 -13.8125 74.0625 -13.8125 77.0625 C-14.8025 76.7325 -15.7925 76.4025 -16.8125 76.0625 C-17.76171875 73.99609375 -17.76171875 73.99609375 -18.5 71.5 C-18.75136719 70.67371094 -19.00273437 69.84742188 -19.26171875 68.99609375 C-19.44347656 68.35800781 -19.62523437 67.71992188 -19.8125 67.0625 C-19.46509792 73.68709836 -18.82189435 79.0437113 -15.8125 85.0625 C-15.3175 86.25875 -14.8225 87.455 -14.3125 88.6875 C-12.99197017 91.65869212 -11.49141145 94.2886463 -9.8125 97.0625 C-9.42578125 98.19945312 -9.42578125 98.19945312 -9.03125 99.359375 C-7.49861643 102.75867767 -5.42199989 104.97219615 -2.875 107.6875 C-1.99972656 108.62851562 -1.12445313 109.56953125 -0.22265625 110.5390625 C1.12428229 111.94930933 2.48232483 113.34983505 3.87890625 114.7109375 C5.1875 116.0625 5.1875 116.0625 7.1875 119.0625 C8.095 119.51625 9.0025 119.97 9.9375 120.4375 C13.1875 122.0625 13.1875 122.0625 15.75 124.4375 C25.41111625 132.84955372 38.94952943 133.24166921 51.0625 133.25 C51.99191406 133.26224609 52.92132813 133.27449219 53.87890625 133.28710938 C60.20758784 133.30034929 66.03524159 132.53827278 72.1875 131.0625 C68.83934243 135.17120511 65.07527307 136.35456553 60.125 137.6875 C59.0740918 137.99300781 59.0740918 137.99300781 58.00195312 138.3046875 C47.86263776 141.16238072 38.09629133 142.42839131 27.5625 142.375 C26.42748047 142.37081055 25.29246094 142.36662109 24.12304688 142.36230469 C11.19699992 142.19000627 -1.05048563 140.72633558 -12.8125 135.0625 C-14.0583124 134.51238323 -15.30443306 133.96296429 -16.55078125 133.4140625 C-26.25133106 129.00198165 -33.37162261 123.62929993 -40.8125 116.0625 C-41.46476562 115.46824219 -42.11703125 114.87398438 -42.7890625 114.26171875 C-54.44117246 103.54071346 -60.91122699 89.98822422 -61.9375 74.13110352 C-62.6823055 54.11212827 -58.59404343 38.13596927 -45.25390625 22.62890625 C-34.12477537 10.92996387 -16.76752302 -0.25026154 0 0 Z " fill="#983D79" transform="translate(223.8125,176.9375)"/>
<path d="M0 0 C1.9351987 0.77659273 3.87254509 1.54786596 5.8125 2.3125 C7.20870058 2.87408783 8.60468879 3.43620608 10 4 C10 4.66 10 5.32 10 6 C10.83337891 6.38865234 10.83337891 6.38865234 11.68359375 6.78515625 C26.82786005 14.72759608 37.36398354 27.65659744 46 42 C46.57234375 42.94488281 47.1446875 43.88976562 47.734375 44.86328125 C50.63367741 50.09994262 52.23192582 54.98301493 51 61 C48.55907185 63.44092815 47.22992296 63.24515894 43.89736938 63.27789307 C42.85375748 63.27182037 42.85375748 63.27182037 41.7890625 63.265625 C40.70399918 63.26849518 40.70399918 63.26849518 39.59701538 63.27142334 C38.05865127 63.27278664 36.52027571 63.26908009 34.98193359 63.26074219 C32.66866818 63.25019903 30.35620737 63.26055038 28.04296875 63.2734375 C11.07882246 63.29082208 11.07882246 63.29082208 3 61 C0.33855278 58.33855278 0.01565369 55.48580677 -0.8125 51.9375 C-2.39086611 45.63971467 -4.5112223 40.45938412 -8 35 C-9.02132556 33.25028722 -10.04214611 31.50027959 -11.0625 29.75 C-20.10345651 14.89536513 -34.63058411 5.04261951 -51.43359375 0.84375 C-56.33898727 -0.18557848 -61.18396648 -0.46119035 -66.1875 -0.5 C-66.97721191 -0.50644531 -67.76692383 -0.51289063 -68.58056641 -0.51953125 C-73.52074976 -0.40925457 -76.56890813 0.69147167 -81 3 C-83.375 2.6875 -83.375 2.6875 -85 2 C-56.65015449 -10.66916173 -28.67269132 -12.58897943 0 0 Z " fill="#E68A3F" transform="translate(290,135)"/>
<path d="M0 0 C6.6 0 13.2 0 20 0 C19.67 0.66 19.34 1.32 19 2 C13.06 2 7.12 2 1 2 C1 9.92 1 17.84 1 26 C0.67 25.34 0.34 24.68 0 24 C-0.66 24 -1.32 24 -2 24 C-2.309375 25.1446875 -2.309375 25.1446875 -2.625 26.3125 C-4.54013848 30.0557252 -6.01109694 30.67036565 -10 32 C-15.35470829 32.65243103 -19.59388047 32.67795049 -24.5 30.3125 C-28.4538884 26.65515323 -29.83500655 24.48494101 -30.4375 19.0625 C-30.25994127 14.7849487 -28.81013746 12.26583542 -26 9 C-22.02009892 5.38190811 -17.80911364 5.57035264 -12.671875 5.6953125 C-9.30707013 6.07901832 -6.83060393 7.16393259 -4 9 C-4.66 10.32 -5.32 11.64 -6 13 C-6.55171875 12.68289063 -7.1034375 12.36578125 -7.671875 12.0390625 C-10.28477989 10.87290025 -12.40579002 10.59954289 -15.25 10.375 C-16.14203125 10.30023438 -17.0340625 10.22546875 -17.953125 10.1484375 C-18.96632812 10.07496094 -18.96632812 10.07496094 -20 10 C-20 10.66 -20 11.32 -20 12 C-18.82630859 12.07347656 -18.82630859 12.07347656 -17.62890625 12.1484375 C-16.61699219 12.22320312 -15.60507813 12.29796875 -14.5625 12.375 C-13.55316406 12.44460938 -12.54382813 12.51421875 -11.50390625 12.5859375 C-10.67761719 12.72257812 -9.85132813 12.85921875 -9 13 C-8.67 13.66 -8.34 14.32 -8 15 C-8.33 15.99 -8.66 16.98 -9 18 C-6.36 18 -3.72 18 -1 18 C-1.01160156 16.86820312 -1.02320313 15.73640625 -1.03515625 14.5703125 C-1.04453454 13.08854331 -1.0536347 11.60677235 -1.0625 10.125 C-1.07087891 9.37863281 -1.07925781 8.63226563 -1.08789062 7.86328125 C-1.11328125 2.2265625 -1.11328125 2.2265625 0 0 Z " fill="#F5F5F5" transform="translate(163,358)"/>
<path d="M0 0 C2.84625 -0.103125 5.6925 -0.20625 8.625 -0.3125 C9.95265381 -0.38078003 9.95265381 -0.38078003 11.30712891 -0.45043945 C15.49969466 -0.52357109 18.18992334 -0.31540341 21.5 2.40234375 C24.89342126 5.92832053 25.86092918 7.49803511 26.3125 12.375 C25.85523345 17.67929197 24.53115561 20.7092545 20.4375 24.16015625 C16.0832622 26.49066307 12.95168787 26.46103336 8.125 26.25 C5.44375 26.1675 2.7625 26.085 0 26 C0 17.42 0 8.84 0 0 Z " fill="#101010" transform="translate(235,364)"/>
<path d="M0 0 C-0.38597015 2.79828356 -0.80136573 3.8205884 -2.9375 5.75 C-5 7 -5 7 -7 7 C-7.23203125 7.71929687 -7.4640625 8.43859375 -7.703125 9.1796875 C-9.23999859 12.52192465 -11.17209233 14.50803313 -13.75 17.125 C-18.64625822 22.36646204 -21.82111291 27.62324738 -25 34 C-25.91194518 35.54446427 -26.82837738 37.08629092 -27.75 38.625 C-29.87990257 42.40694239 -30.90051902 45.98698953 -31.640625 50.25 C-32 52 -32 52 -33 53 C-33.21178134 54.89132506 -33.36921992 56.78885354 -33.5 58.6875 C-33.73407946 61.84943049 -33.97805018 64.88293429 -34.5625 68 C-35.81644838 76.59850321 -34.94720693 85.40748 -34 94 C-33.95101562 93.40832031 -33.90203125 92.81664062 -33.8515625 92.20703125 C-33.42895506 87.7405078 -32.74858379 84.15288651 -31 80 C-30.835 78.845 -30.67 77.69 -30.5 76.5 C-30.04679793 73.3275855 -29.31742194 70.89832828 -28 68 C-27.34 68 -26.68 68 -26 68 C-25.71125 66.865625 -25.4225 65.73125 -25.125 64.5625 C-24.75375 63.386875 -24.3825 62.21125 -24 61 C-23.01 60.505 -23.01 60.505 -22 60 C-21.731875 59.030625 -21.46375 58.06125 -21.1875 57.0625 C-20 54 -20 54 -17.5 52.6875 C-16.2625 52.3471875 -16.2625 52.3471875 -15 52 C-14.01 51.505 -14.01 51.505 -13 51 C-14.05616823 54.37973833 -15.55300416 56.78538733 -17.75 59.5 C-28.24195889 73.15497591 -30.46205173 89.27013489 -29 106 C-28.0225169 112.73892547 -26.54956615 119.37283764 -25 126 C-27.73216378 124.63391811 -27.82813335 123.2709614 -28.875 120.4375 C-30.07094821 117.21647983 -31.40696686 114.2124286 -33.0234375 111.1875 C-35.11401096 107.04672478 -36.07888798 103.1333036 -36.75 98.5625 C-36.86996338 97.75756104 -36.98992676 96.95262207 -37.11352539 96.12329102 C-39.96993754 74.63422025 -38.31391519 54.07722074 -30 34 C-29.34 34 -28.68 34 -28 34 C-27.90460938 33.28972656 -27.80921875 32.57945312 -27.7109375 31.84765625 C-25.63794364 23.54429074 -9.42155996 0 0 0 Z " fill="#C0D175" transform="translate(192,147)"/>
<path d="M0 0 C1.18529297 0.01353516 1.18529297 0.01353516 2.39453125 0.02734375 C3.28205078 0.04474609 3.28205078 0.04474609 4.1875 0.0625 C1.06358257 3.28718896 -2.17581966 6.35642978 -5.5 9.375 C-6.65048828 10.42107422 -6.65048828 10.42107422 -7.82421875 11.48828125 C-9.8125 13.0625 -9.8125 13.0625 -11.8125 13.0625 C-12.74673645 10.05218256 -12.85699911 9.19599732 -11.8125 6.0625 C-14.72767292 7.13651108 -16.59060176 7.84060176 -18.8125 10.0625 C-20.1325 10.0625 -21.4525 10.0625 -22.8125 10.0625 C-23.1425 10.7225 -23.4725 11.3825 -23.8125 12.0625 C-25.51953125 12.7734375 -25.51953125 12.7734375 -27.625 13.4375 C-32.59595972 15.1982335 -34.90151633 17.69602449 -37.8125 22.0625 C-40.3125 24.75 -40.3125 24.75 -42.8125 27.0625 C-43.4725 27.0625 -44.1325 27.0625 -44.8125 27.0625 C-44.874375 27.59875 -44.93625 28.135 -45 28.6875 C-45.8125 31.0625 -45.8125 31.0625 -48.375 34.125 C-51.13178623 36.8110962 -51.13178623 36.8110962 -50.8125 40.0625 C-52.2975 40.5575 -52.2975 40.5575 -53.8125 41.0625 C-54.1425 41.7225 -54.4725 42.3825 -54.8125 43.0625 C-53.8225 43.3925 -52.8325 43.7225 -51.8125 44.0625 C-52.8125 46.0625 -52.8125 46.0625 -55.8125 48.0625 C-55.8125 48.866875 -55.8125 49.67125 -55.8125 50.5 C-55.8125 53.0625 -55.8125 53.0625 -57.3125 54.875 C-58.055 55.4628125 -58.055 55.4628125 -58.8125 56.0625 C-58.4825 56.7225 -58.1525 57.3825 -57.8125 58.0625 C-57.4825 58.7225 -57.1525 59.3825 -56.8125 60.0625 C-57.4725 60.7225 -58.1325 61.3825 -58.8125 62.0625 C-59.60936797 70.88664095 -59.05468891 79.58159377 -55.6875 87.8125 C-54.69463942 90.36557007 -54.6573191 92.34683419 -54.8125 95.0625 C-55.8025 94.7325 -56.7925 94.4025 -57.8125 94.0625 C-58.73402517 91.3780571 -59.41554255 88.88726743 -60 86.125 C-60.17217041 85.32030273 -60.34434082 84.51560547 -60.52172852 83.68652344 C-64.16344315 65.17372397 -62.21843714 47.11679601 -51.8125 31.0625 C-41.12818242 15.8827054 -25.50076585 4.86123104 -7.328125 0.4609375 C-4.83410984 0.06592268 -2.52206273 -0.03764273 0 0 Z " fill="#7B4353" transform="translate(223.8125,176.9375)"/>
<path d="M0 0 C2.701875 -0.103125 5.40375 -0.20625 8.1875 -0.3125 C9.02949951 -0.35802002 9.87149902 -0.40354004 10.73901367 -0.45043945 C14.95752836 -0.52816081 16.55358172 -0.34419831 20.01953125 2.328125 C22 5 22 5 22.5 8.0625 C21.95812302 11.24602727 21.27058938 12.72941062 19 15 C18.34 15 17.68 15 17 15 C18.98 18.63 20.96 22.26 23 26 C21.35 26 19.7 26 18 26 C16.48046875 24.06640625 16.48046875 24.06640625 15.1875 21.5625 C13.18818114 18.09138633 13.18818114 18.09138633 9.83984375 16.1796875 C7.39560974 15.86541613 7.39560974 15.86541613 4 16 C4 19.3 4 22.6 4 26 C2.68 26 1.36 26 0 26 C0 17.42 0 8.84 0 0 Z " fill="#0E0E0E" transform="translate(170,364)"/>
<path d="M0 0 C1.9351987 0.77659273 3.87254509 1.54786596 5.8125 2.3125 C7.20870058 2.87408783 8.60468879 3.43620608 10 4 C10 4.66 10 5.32 10 6 C10.53625 6.2475 11.0725 6.495 11.625 6.75 C14.56424252 8.29696975 17.25754408 10.13014369 20 12 C16.25 13.125 16.25 13.125 14 12 C14 11.34 14 10.68 14 10 C12.515 9.505 12.515 9.505 11 9 C11 8.34 11 7.68 11 7 C9.02 6.34 7.04 5.68 5 5 C5 4.34 5 3.68 5 3 C3.906875 2.87625 2.81375 2.7525 1.6875 2.625 C-2 2 -2 2 -5 0 C-7.50896686 -0.45601261 -7.50896686 -0.45601261 -10.1875 -0.625 C-11.08855469 -0.69976562 -11.98960937 -0.77453125 -12.91796875 -0.8515625 C-13.60503906 -0.90054688 -14.29210937 -0.94953125 -15 -1 C-15 -1.66 -15 -2.32 -15 -3 C-21.36492651 -3.67763476 -27.60129333 -4.10140689 -34.00390625 -3.9375 C-36 -4 -36 -4 -38 -5 C-43.69190834 -5.35379321 -49.41811239 -5.18763566 -55 -4 C-55.33 -3.34 -55.66 -2.68 -56 -2 C-54.6078125 -2.0928125 -54.6078125 -2.0928125 -53.1875 -2.1875 C-46.8791168 -2.20040058 -40.23588517 -0.49059011 -35 3 C-35 3.66 -35 4.32 -35 5 C-34.38125 4.814375 -33.7625 4.62875 -33.125 4.4375 C-31 4 -31 4 -29 5 C-29 5.99 -29 6.98 -29 8 C-28.34 8 -27.68 8 -27 8 C-27.33 8.66 -27.66 9.32 -28 10 C-28.94875 9.5875 -29.8975 9.175 -30.875 8.75 C-32.24927737 8.16496626 -33.62435621 7.5818135 -35 7 C-35.76054687 6.67515625 -36.52109375 6.3503125 -37.3046875 6.015625 C-39.85238247 4.95747693 -42.41556383 3.96485617 -45 3 C-45.79792969 2.69578125 -46.59585938 2.3915625 -47.41796875 2.078125 C-53.53614874 0.06718832 -59.42304753 -0.30914821 -65.8125 -0.375 C-66.62517334 -0.38885742 -67.43784668 -0.40271484 -68.27514648 -0.41699219 C-73.36931401 -0.37709969 -76.43614688 0.58815353 -81 3 C-83.375 2.6875 -83.375 2.6875 -85 2 C-56.65015449 -10.66916173 -28.67269132 -12.58897943 0 0 Z " fill="#EAC374" transform="translate(290,135)"/>
<path d="M0 0 C5 1 5 1 7.16796875 3.50390625 C7.83441406 4.51324219 8.50085938 5.52257812 9.1875 6.5625 C10.41486136 8.40471543 11.67603224 10.22594166 13 12 C13.66 12 14.32 12 15 12 C17.06011083 9.23954244 18.93432741 6.37799156 20.83203125 3.50390625 C23 1 23 1 28 0 C28 8.58 28 17.16 28 26 C26.68 26 25.36 26 24 26 C23.67 20.39 23.34 14.78 23 9 C20.69 11.97 18.38 14.94 16 18 C9.29353406 16.65870681 8.73583618 14.4734344 5 9 C4.67 14.61 4.34 20.22 4 26 C2.68 26 1.36 26 0 26 C0 17.42 0 8.84 0 0 Z " fill="#070707" transform="translate(302,364)"/>
<path d="M0 0 C1.65 0 3.3 0 5 0 C16 21.31958763 16 21.31958763 16 26 C14.35 25.67 12.7 25.34 11 25 C10.505 22.525 10.505 22.525 10 20 C5.05 20 0.1 20 -5 20 C-5.33 21.65 -5.66 23.3 -6 25 C-7.65 25.33 -9.3 25.66 -11 26 C-9.28137532 20.31531835 -6.8358325 15.01576119 -4.375 9.625 C-3.95476562 8.69816406 -3.53453125 7.77132813 -3.1015625 6.81640625 C-2.07035118 4.54305401 -1.03643137 2.27097594 0 0 Z " fill="#0F0F0F" transform="translate(211,364)"/>
<path d="M0 0 C1.2065625 0.0309375 1.2065625 0.0309375 2.4375 0.0625 C4.27694626 4.01802103 6.10801553 7.97736285 7.9375 11.9375 C8.46214844 13.06542969 8.98679687 14.19335938 9.52734375 15.35546875 C10.02363281 16.43183594 10.51992188 17.50820313 11.03125 18.6171875 C11.49208984 19.61218262 11.95292969 20.60717773 12.42773438 21.63232422 C13.4375 24.0625 13.4375 24.0625 13.4375 26.0625 C11.0625 25.8125 11.0625 25.8125 8.4375 25.0625 C8.2003125 24.4025 7.963125 23.7425 7.71875 23.0625 C7.08453125 22.0725 7.08453125 22.0725 6.4375 21.0625 C3.09774628 20.35461565 3.09774628 20.35461565 -0.6875 20.3125 C-1.96882813 20.25578125 -3.25015625 20.1990625 -4.5703125 20.140625 C-5.55773437 20.11484375 -6.54515625 20.0890625 -7.5625 20.0625 C-8.2225 22.0425 -8.8825 24.0225 -9.5625 26.0625 C-10.8825 26.0625 -12.2025 26.0625 -13.5625 26.0625 C-11.73521177 20.04319759 -9.45516112 14.31935097 -6.9375 8.5625 C-6.62417725 7.84384766 -6.31085449 7.12519531 -5.98803711 6.38476562 C-3.20056488 0.07806256 -3.20056488 0.07806256 0 0 Z " fill="#0E0E0E" transform="translate(280.5625,363.9375)"/>
<path d="M0 0 C0.763125 0.495 1.52625 0.99 2.3125 1.5 C1.6525 2.82 0.9925 4.14 0.3125 5.5 C-0.24566406 5.17902344 -0.80382812 4.85804688 -1.37890625 4.52734375 C-5.38383169 2.74511805 -9.39911802 2.82799184 -13.6875 3.5 C-17.25531839 5.92611651 -18.4338865 7.2826552 -19.3125 11.5 C-18.4338865 15.7173448 -17.25531839 17.07388349 -13.6875 19.5 C-10.24237904 20.1400467 -7.13091126 20.15616437 -3.6875 19.5 C-1.05233958 17.70808542 -1.05233958 17.70808542 0.3125 15.5 C-2.6575 15.5 -5.6275 15.5 -8.6875 15.5 C-8.6875 14.18 -8.6875 12.86 -8.6875 11.5 C-4.3975 11.5 -0.1075 11.5 4.3125 11.5 C4.74744462 15.93643516 4.85251196 17.82863378 2 21.375 C-3.03165941 25.35352139 -8.51177223 25.13612647 -14.6875 24.5 C-19.1206235 22.36260117 -21.81280646 20.0825842 -23.6875 15.5 C-24.22385899 10.67276908 -24.20767901 8.52109214 -22 4.1875 C-16.06462543 -2.71036775 -8.31078496 -3.38065829 0 0 Z " fill="#0E0E0E" transform="translate(156.6875,365.5)"/>
<path d="M0 0 C10.91525424 -0.4797914 10.91525424 -0.4797914 15.25 1.4375 C17.46940706 4.68734605 17.73023925 6.91904802 17.4609375 10.8046875 C17 13 17 13 15.25 16.0625 C10.18761199 19.08046209 5.82785598 18.32021187 0 18 C0 12.06 0 6.12 0 0 Z " fill="#F6F6F6" transform="translate(239,368)"/>
<path d="M0 0 C0.639375 0.495 1.27875 0.99 1.9375 1.5 C1.6075 2.82 1.2775 4.14 0.9375 5.5 C0.298125 5.17 -0.34125 4.84 -1 4.5 C-6.00477317 2.86578835 -11.06597926 2.83449309 -16.0625 4.5 C-16.95464652 7.17643957 -17.19790211 8.75384378 -17.1875 11.5 C-17.19007813 12.180625 -17.19265625 12.86125 -17.1953125 13.5625 C-17.12881126 15.71874781 -17.12881126 15.71874781 -16.0625 18.5 C-11.06597926 20.16550691 -6.00477317 20.13421165 -1 18.5 C-0.360625 18.17 0.27875 17.84 0.9375 17.5 C1.2675 18.82 1.5975 20.14 1.9375 21.5 C-2.18395453 24.91085892 -6.17882319 25.11744079 -11.328125 24.9921875 C-15.6660176 24.21136683 -18.39950777 21.94179185 -21.0625 18.5 C-22.42167374 14.42247878 -22.70939889 10.75935674 -22.0625 6.5 C-20.37336623 3.1778033 -17.99698484 1.07107407 -14.8125 -0.875 C-9.57713626 -2.06485539 -4.88509897 -2.39270153 0 0 Z " fill="#0E0E0E" transform="translate(387.0625,365.5)"/>
<path d="M0 0 C7.76447015 0.61622779 14.30317773 2.28850821 21.375 5.5625 C30.21881026 9.06952821 39.28288282 9.27473671 48.6875 9.125 C49.78255859 9.11597656 50.87761719 9.10695313 52.00585938 9.09765625 C54.67081354 9.07438154 57.33528134 9.04169135 60 9 C59.73323796 7.01508358 59.73323796 7.01508358 59 5 C58.01 4.67 57.02 4.34 56 4 C65.24 4 74.48 4 84 4 C80.9078682 6.0614212 78.35020151 6.97174326 74.8125 8.0625 C73.72582031 8.40410156 72.63914062 8.74570312 71.51953125 9.09765625 C51.43365614 14.24730902 25.85940917 12.86673715 7 4 C5.62663173 3.41283531 4.25177926 2.82912144 2.875 2.25 C1.92625 1.8375 0.9775 1.425 0 1 C0 0.67 0 0.34 0 0 Z " fill="#BE6EA3" transform="translate(204,308)"/>
<path d="M0 0 C3.875 1.75 3.875 1.75 5 4 C7.11015954 5.12706706 7.11015954 5.12706706 9.5625 6.125 C10.38878906 6.47820312 11.21507812 6.83140625 12.06640625 7.1953125 C13.02353516 7.59363281 13.02353516 7.59363281 14 8 C14 8.99 14 9.98 14 11 C14.97839844 11.29003906 14.97839844 11.29003906 15.9765625 11.5859375 C19.75674109 12.7121854 23.52202006 13.83454541 27.25 15.125 C40.69428142 19.40272591 56.32038338 17.83547322 69.2109375 12.6484375 C71 12 71 12 73.875 11.5625 C74.926875 11.2840625 74.926875 11.2840625 76 11 C77.09166275 9.06669397 77.09166275 9.06669397 78 7 C79.9375 5.6875 79.9375 5.6875 82 5 C82.99 5.33 83.98 5.66 85 6 C83.25579087 7.32018588 81.50439909 8.63088602 79.75 9.9375 C78.77546875 10.66839844 77.8009375 11.39929688 76.796875 12.15234375 C74.3732119 13.75345079 72.8242508 14.57636238 70 15 C70 15.66 70 16.32 70 17 C62.27317992 19.73861977 55.01050288 20.30154494 46.875 20.3125 C45.9576709 20.31765625 45.0403418 20.3228125 44.09521484 20.328125 C30.76157291 20.19447833 18.15960032 16.89596526 7.6875 8.34375 C5.87691009 6.82550382 5.87691009 6.82550382 3.0625 5.375 C1 4 1 4 0.1875 1.8125 C0.125625 1.214375 0.06375 0.61625 0 0 Z " fill="#5D61A2" transform="translate(228,291)"/>
<path d="M0 0 C4.95 0 9.9 0 15 0 C15 1.32 15 2.64 15 4 C13.02 4 11.04 4 9 4 C9 9.94 9 15.88 9 22 C10.98 22 12.96 22 15 22 C15 23.32 15 24.64 15 26 C10.05 26 5.1 26 0 26 C0 24.68 0 23.36 0 22 C1.65 22 3.3 22 5 22 C5 16.06 5 10.12 5 4 C3.35 4 1.7 4 0 4 C0 2.68 0 1.36 0 0 Z " fill="#0E0E0E" transform="translate(341,364)"/>
<path d="M0 0 C4.01759423 3.15668118 7.36270885 6.403078 10.60546875 10.3515625 C11.97728973 12.02442212 11.97728973 12.02442212 13.55078125 13.5234375 C15 15 15 15 17 18 C18.36125 18.680625 18.36125 18.680625 19.75 19.375 C23 21 23 21 25.5625 23.375 C35.22361625 31.78705372 48.76202943 32.17916921 60.875 32.1875 C62.26912109 32.20586914 62.26912109 32.20586914 63.69140625 32.22460938 C70.02008784 32.23784929 75.84774159 31.47577278 82 30 C80.52416992 31.96679688 80.52416992 31.96679688 78 34 C75.07539147 34.3983917 72.53564205 34.56149591 69.61328125 34.53125 C68.7968364 34.5350769 67.98039154 34.53890381 67.13920593 34.54284668 C65.41188321 34.54556566 63.68451932 34.53820534 61.95727539 34.52148438 C59.33839696 34.50021037 56.72230499 34.52121269 54.10351562 34.546875 C38.16181067 34.57396549 38.16181067 34.57396549 31 30 C30.10410156 29.53078125 29.20820313 29.0615625 28.28515625 28.578125 C12.60401003 19.20802005 12.60401003 19.20802005 10 14 C9.01 13.67 8.02 13.34 7 13 C6.65657551 11.66923011 6.32380126 10.33568021 6 9 C5.01 8.34 4.02 7.68 3 7 C0 2.55555556 0 2.55555556 0 0 Z " fill="#955197" transform="translate(214,278)"/>
<path d="M0 0 C0.33 0.66 0.66 1.32 1 2 C0.49210937 2.64324219 -0.01578125 3.28648437 -0.5390625 3.94921875 C-12.50946245 19.66317075 -16.70809285 35.45475249 -15 55 C-14.0225169 61.73892547 -12.54956615 68.37283764 -11 75 C-14.27913398 73.36043301 -14.8641607 70.30583555 -16.13525391 66.99462891 C-17.64171113 61.77774457 -17.63944197 56.58601913 -17.6875 51.1875 C-17.7297184 48.99342247 -17.77517004 46.79940421 -17.82421875 44.60546875 C-17.83541748 43.64793701 -17.84661621 42.69040527 -17.8581543 41.70385742 C-17.93163095 38.98223745 -17.93163095 38.98223745 -18.56567383 36.2980957 C-19.13699926 33.27511295 -18.20144249 31.80336581 -17 29 C-16.835 27.845 -16.67 26.69 -16.5 25.5 C-16.04679793 22.3275855 -15.31742194 19.89832828 -14 17 C-13.34 17 -12.68 17 -12 17 C-11.566875 15.2984375 -11.566875 15.2984375 -11.125 13.5625 C-10.75375 12.386875 -10.3825 11.21125 -10 10 C-9.34 9.67 -8.68 9.34 -8 9 C-7.731875 8.030625 -7.46375 7.06125 -7.1875 6.0625 C-6 3 -6 3 -3.4375 1.6875 C-2.633125 1.460625 -1.82875 1.23375 -1 1 C-0.67 0.67 -0.34 0.34 0 0 Z " fill="#C0C767" transform="translate(178,198)"/>
<path d="M0 0 C1.98 0 3.96 0 6 0 C6.3403125 0.9590625 6.3403125 0.9590625 6.6875 1.9375 C7.85250896 4.27193661 7.85250896 4.27193661 10.625 4.75 C11.40875 4.8325 12.1925 4.915 13 5 C13 5.33 13 5.66 13 6 C11.84951172 6.05994141 11.84951172 6.05994141 10.67578125 6.12109375 C7.73722075 6.7579143 7.73722075 6.7579143 6.41796875 9.72265625 C6.01191406 10.82480469 5.60585938 11.92695313 5.1875 13.0625 C4.76855469 14.16722656 4.34960938 15.27195312 3.91796875 16.41015625 C3.61503906 17.26480469 3.31210937 18.11945313 3 19 C2.67 18.34 2.34 17.68 2 17 C0.35 17 -1.3 17 -3 17 C-3.33 16.34 -3.66 15.68 -4 15 C-4.99 15 -5.98 15 -7 15 C-3.535 7.575 -3.535 7.575 0 0 Z " fill="#F1F1F1" transform="translate(270,358)"/>
<path d="M0 0 C2.64 0 5.28 0 8 0 C9.10016037 4.38405613 9.39587062 6.29999496 7.12890625 10.30859375 C6.29347648 11.36768189 5.43729079 12.41068372 4.5625 13.4375 C3.9118457 14.24864258 3.9118457 14.24864258 3.24804688 15.07617188 C2.18309185 16.39858855 1.09388467 17.70141177 0 19 C-3.44852854 17.85049049 -4.3569424 17.19963849 -6 14 C-4.97877441 9.00734156 -2.35023393 4.49510762 0 0 Z " fill="#F4F4F4" transform="translate(317,358)"/>
<path d="M0 0 C-0.33 0.99 -0.66 1.98 -1 3 C-0.33355469 3.03738281 0.33289063 3.07476562 1.01953125 3.11328125 C8.94114646 3.67831954 17.26763932 4.51175954 24 9 C24 9.66 24 10.32 24 11 C24.61875 10.814375 25.2375 10.62875 25.875 10.4375 C28 10 28 10 30 11 C30 11.99 30 12.98 30 14 C30.66 14 31.32 14 32 14 C31.67 14.66 31.34 15.32 31 16 C30.05125 15.5875 29.1025 15.175 28.125 14.75 C26.75072263 14.16496626 25.37564379 13.5818135 24 13 C23.23945313 12.67515625 22.47890625 12.3503125 21.6953125 12.015625 C19.14761753 10.95747693 16.58443617 9.96485617 14 9 C13.20207031 8.69578125 12.40414062 8.3915625 11.58203125 8.078125 C5.46385126 6.06718832 -0.42304753 5.69085179 -6.8125 5.625 C-7.62517334 5.61114258 -8.43784668 5.59728516 -9.27514648 5.58300781 C-14.36931401 5.62290031 -17.43614688 6.58815353 -22 9 C-24.375 8.6875 -24.375 8.6875 -26 8 C-7.59683794 0 -7.59683794 0 0 0 Z " fill="#E3C04A" transform="translate(231,129)"/>
<path d="M0 0 C-0.38597015 2.79828356 -0.80136573 3.8205884 -2.9375 5.75 C-5 7 -5 7 -7 7 C-7.23203125 7.71929687 -7.4640625 8.43859375 -7.703125 9.1796875 C-9.23999859 12.52192465 -11.17209233 14.50803313 -13.75 17.125 C-18.63833369 22.35143169 -21.84663293 27.62428596 -25 34 C-25.78034999 35.40219139 -26.57043269 36.79906266 -27.375 38.1875 C-27.91125 39.115625 -28.4475 40.04375 -29 41 C-30.52929415 36.41211755 -28.93884069 33.3099475 -27 29 C-22.8397401 21.61528438 -9.65796606 0 0 0 Z " fill="#B9C777" transform="translate(192,147)"/>
<path d="M0 0 C2.625 -0.1875 2.625 -0.1875 5 0 C5.2475 0.61875 5.495 1.2375 5.75 1.875 C7.20628639 4.35068687 8.37812506 4.95125002 11 6 C9.35 6 7.7 6 6 6 C5.81824219 6.60328125 5.63648438 7.2065625 5.44921875 7.828125 C2.95254833 15.76625659 2.95254833 15.76625659 0 19 C-1.32 18.34 -2.64 17.68 -4 17 C-3.34 14.36 -2.68 11.72 -2 9 C-3.32 11.31 -4.64 13.62 -6 16 C-6.66 15.67 -7.32 15.34 -8 15 C-7.01 12.69 -6.02 10.38 -5 8 C-4.34 8 -3.68 8 -3 8 C-2.814375 6.8553125 -2.814375 6.8553125 -2.625 5.6875 C-2 3 -2 3 0 0 Z " fill="#EEEEEE" transform="translate(205,358)"/>
<path d="M0 0 C0.33 0 0.66 0 1 0 C0.979375 1.0415625 0.95875 2.083125 0.9375 3.15625 C0.99734504 13.54974619 3.15244167 20.79227185 8.28515625 29.8046875 C10 33 10 33 10 36 C9.01 35.67 8.02 35.34 7 35 C6.05078125 32.93359375 6.05078125 32.93359375 5.3125 30.4375 C5.06113281 29.61121094 4.80976563 28.78492188 4.55078125 27.93359375 C4.36902344 27.29550781 4.18726563 26.65742188 4 26 C4.34740208 32.62459836 4.99060565 37.9812113 8 44 C8.495 45.19625 8.99 46.3925 9.5 47.625 C10.89902414 50.98186027 10.89902414 50.98186027 12.75 53.8125 C13.1625 54.534375 13.575 55.25625 14 56 C13.67 56.66 13.34 57.32 13 58 C9.77089991 56.17017662 9.05986509 55.19368116 7.9375 51.5625 C7.628125 50.386875 7.31875 49.21125 7 48 C6.29617187 47.11828125 6.29617187 47.11828125 5.578125 46.21875 C-3.14478835 33.95485202 -0.40351254 14.04068452 0 0 Z " fill="#824C7B" transform="translate(200,218)"/>
<path d="M0 0 C-3.41460848 1.13820283 -5.51531606 0.71028442 -9 0 C-18.67185958 -0.69132654 -28.08009691 -1.24348001 -36.87890625 3.2421875 C-40.72141856 4.61501879 -44.27792235 3.33059781 -48 2 C-48 1.34 -48 0.68 -48 0 C-34.07564304 -6.32925316 -14.24788922 -4.08471909 0 0 Z " fill="#97A362" transform="translate(268,175)"/>
<path d="M0 0 C-0.33 0.99 -0.66 1.98 -1 3 C-3.05402369 3.75314202 -5.11646039 4.48802594 -7.20703125 5.1328125 C-16.88696869 8.13833154 -24.98078029 11.77653718 -33 18 C-34.45696077 19.10597715 -35.9152078 20.21026279 -37.375 21.3125 C-38.28378906 22.01826172 -38.28378906 22.01826172 -39.2109375 22.73828125 C-41.06635806 24.04679837 -42.94713568 25.03687202 -45 26 C-43.6696033 22.96747812 -42.31353443 21.14681515 -39.75 19.0625 C-38.81607422 18.29486328 -38.81607422 18.29486328 -37.86328125 17.51171875 C-36.94095703 16.76341797 -36.94095703 16.76341797 -36 16 C-34.97898873 15.12520763 -33.95814322 14.25022175 -32.9375 13.375 C-31.4834375 12.199375 -31.4834375 12.199375 -30 11 C-29.113125 10.278125 -28.22625 9.55625 -27.3125 8.8125 C-23.41848472 6.68181239 -20.04159932 6.22367851 -15.6953125 5.56640625 C-11.85298876 4.75896141 -9.26203666 3.15155609 -6 1 C-4 0 -4 0 0 0 Z " fill="#B0B164" transform="translate(220,175)"/>
<path d="M0 0 C1.95803507 -0.05389087 3.91648909 -0.09274217 5.875 -0.125 C7.51082031 -0.15980469 7.51082031 -0.15980469 9.1796875 -0.1953125 C12 0 12 0 14 2 C13.44444444 6.55555556 13.44444444 6.55555556 12 8 C9.98035801 8.07244053 7.95832876 8.08377188 5.9375 8.0625 C4.83277344 8.05347656 3.72804687 8.04445313 2.58984375 8.03515625 C1.30787109 8.01775391 1.30787109 8.01775391 0 8 C0 5.36 0 2.72 0 0 Z " fill="#F7F7F7" transform="translate(174,368)"/>
<path d="M0 0 C6.6 0 13.2 0 20 0 C19.67 0.66 19.34 1.32 19 2 C13.06 2 7.12 2 1 2 C1 9.92 1 17.84 1 26 C0.67 25.34 0.34 24.68 0 24 C-0.66 24 -1.32 24 -2 24 C-2 22.35 -2 20.7 -2 19 C-6.29 19 -10.58 19 -15 19 C-15 18.67 -15 18.34 -15 18 C-10.38 18 -5.76 18 -1 18 C-1.01160156 16.86820312 -1.02320313 15.73640625 -1.03515625 14.5703125 C-1.04453454 13.08854331 -1.0536347 11.60677235 -1.0625 10.125 C-1.07087891 9.37863281 -1.07925781 8.63226563 -1.08789062 7.86328125 C-1.11328125 2.2265625 -1.11328125 2.2265625 0 0 Z " fill="#E3E3E3" transform="translate(163,358)"/>
<path d="M0 0 C14.13920956 -0.69842418 28.87026075 -0.35968516 41 8 C41 8.33 41 8.66 41 9 C39.02 9 37.04 9 35 9 C34.505 8.01 34.505 8.01 34 7 C23.6956004 3.46367895 9.31657569 0.87018067 -1 5 C-0.67 3.35 -0.34 1.7 0 0 Z " fill="#959B3C" transform="translate(215,134)"/>
<path d="M0 0 C7.76447015 0.61622779 14.30317773 2.28850821 21.375 5.5625 C30.10732298 9.02531773 39.39270212 9.351791 48.6875 9.625 C49.78255859 9.66367187 50.87761719 9.70234375 52.00585938 9.7421875 C54.670418 9.83527252 57.33499022 9.92109852 60 10 C60 10.33 60 10.66 60 11 C23.628648 11.81794645 23.628648 11.81794645 7 4 C5.62663173 3.41283531 4.25177926 2.82912144 2.875 2.25 C1.92625 1.8375 0.9775 1.425 0 1 C0 0.67 0 0.34 0 0 Z " fill="#BE6FA1" transform="translate(204,308)"/>
<path d="M0 0 C2.97 0.495 2.97 0.495 6 1 C6 1.66 6 2.32 6 3 C6.66 3 7.32 3 8 3 C8 3.99 8 4.98 8 6 C8.61875 6.103125 9.2375 6.20625 9.875 6.3125 C12 7 12 7 14 10 C14.99 10.33 15.98 10.66 17 11 C17.97257211 12.87807028 18.93402234 14.7632984 19.8203125 16.68359375 C21.08150165 19.1600347 22.56925437 21.3054732 24.1875 23.5625 C26.88788114 27.48043334 27.79870307 30.26952222 28 35 C24.93138816 31.39421322 22.71103237 27.77521127 20.5625 23.5625 C16.58752702 16.07573945 12.31220503 11.10466346 5.87109375 5.61328125 C3.81073837 3.83681618 1.88376398 1.96225415 0 0 Z " fill="#D6A94A" transform="translate(260,144)"/>
<path d="M0 0 C8.05315277 0.40948234 14.59352269 2.93032748 22 6 C23.93674901 6.77271828 25.87416964 7.54375708 27.8125 8.3125 C29.20870058 8.87408783 30.60468879 9.43620608 32 10 C32 10.66 32 11.32 32 12 C32.53625 12.2475 33.0725 12.495 33.625 12.75 C36.56424252 14.29696975 39.25754408 16.13014369 42 18 C38.25 19.125 38.25 19.125 36 18 C36 17.34 36 16.68 36 16 C35.01 15.67 34.02 15.34 33 15 C33 14.34 33 13.68 33 13 C31.02 12.34 29.04 11.68 27 11 C27 10.34 27 9.68 27 9 C25.906875 8.87625 24.81375 8.7525 23.6875 8.625 C20 8 20 8 17 6 C14.49103314 5.54398739 14.49103314 5.54398739 11.8125 5.375 C10.91144531 5.30023438 10.01039063 5.22546875 9.08203125 5.1484375 C8.39496094 5.09945312 7.70789063 5.05046875 7 5 C7 4.34 7 3.68 7 3 C5.824375 3.0928125 5.824375 3.0928125 4.625 3.1875 C3.75875 3.125625 2.8925 3.06375 2 3 C1.34 2.01 0.68 1.02 0 0 Z " fill="#DBAC70" transform="translate(268,129)"/>
<path d="M0 0 C0.66 0 1.32 0 2 0 C2.33 0.66 2.66 1.32 3 2 C3.33 1.34 3.66 0.68 4 0 C5.65 0 7.3 0 9 0 C7.68 0.33 6.36 0.66 5 1 C5 9.58 5 18.16 5 27 C4.67 27 4.34 27 4 27 C3.67 20.4 3.34 13.8 3 7 C2.87625 9.289375 2.7525 11.57875 2.625 13.9375 C2.4140625 17.83984375 2.4140625 17.83984375 2 21 C1.34 21.33 0.68 21.66 0 22 C0 14.74 0 7.48 0 0 Z " fill="#EAEAEA" transform="translate(297,363)"/>
<path d="M0 0 C3.875 1.75 3.875 1.75 5 4 C7.11015954 5.12706706 7.11015954 5.12706706 9.5625 6.125 C10.38878906 6.47820312 11.21507812 6.83140625 12.06640625 7.1953125 C13.02353516 7.59363281 13.02353516 7.59363281 14 8 C14 8.99 14 9.98 14 11 C14.97839844 11.29003906 14.97839844 11.29003906 15.9765625 11.5859375 C20.6771398 12.98640448 25.35840891 14.41208726 30 16 C30 16.66 30 17.32 30 18 C30.66 18.33 31.32 18.66 32 19 C22.88662594 17.74251664 14.80201555 14.1539377 7.6875 8.34375 C5.87691009 6.82550382 5.87691009 6.82550382 3.0625 5.375 C1 4 1 4 0.1875 1.8125 C0.125625 1.214375 0.06375 0.61625 0 0 Z " fill="#635D9D" transform="translate(228,291)"/>
<path d="M0 0 C0.33 0 0.66 0 1 0 C1 2.97 1 5.94 1 9 C1.66 9 2.32 9 3 9 C3 9.66 3 10.32 3 11 C5.64 11.66 8.28 12.32 11 13 C10.67 13.66 10.34 14.32 10 15 C9.34 15 8.68 15 8 15 C7.67 17.31 7.34 19.62 7 22 C6.67 20.68 6.34 19.36 6 18 C4.02 18 2.04 18 0 18 C0 12.06 0 6.12 0 0 Z " fill="#DEDEDE" transform="translate(350,368)"/>
<path d="M0 0 C0.79921875 0.00902344 1.5984375 0.01804687 2.421875 0.02734375 C3.02515625 0.03894531 3.6284375 0.05054688 4.25 0.0625 C4.25 0.7225 4.25 1.3825 4.25 2.0625 C2.27 2.0625 0.29 2.0625 -1.75 2.0625 C-0.43 2.3925 0.89 2.7225 2.25 3.0625 C2.25 3.7225 2.25 4.3825 2.25 5.0625 C-0.06 5.0625 -2.37 5.0625 -4.75 5.0625 C-4.75 6.7125 -4.75 8.3625 -4.75 10.0625 C-5.08 8.7425 -5.41 7.4225 -5.75 6.0625 C-10.7 6.0625 -15.65 6.0625 -20.75 6.0625 C-20.75 5.7325 -20.75 5.4025 -20.75 5.0625 C-19.5125 4.959375 -18.275 4.85625 -17 4.75 C-13.39169349 4.31166699 -11.53854051 3.45267758 -8.75 1.0625 C-5.78621954 0.09799386 -3.10335935 -0.04563764 0 0 Z " fill="#E9E9E9" transform="translate(361.75,357.9375)"/>
<path d="M0 0 C5.36549035 1.46331555 8.31213823 5.09120642 12 9 C12.86625 9.845625 13.7325 10.69125 14.625 11.5625 C17.29043408 14.29807708 19.72719845 16.9250332 22 20 C21.67 20.99 21.34 21.98 21 23 C19.5 21.6875 19.5 21.6875 18 20 C18 19.01 18 18.02 18 17 C17.01 16.67 16.02 16.34 15 16 C15 15.34 15 14.68 15 14 C14.278125 13.773125 13.55625 13.54625 12.8125 13.3125 C9.46799444 11.75173074 7.55926385 9.6266129 5 7 C4.01 6.67 3.02 6.34 2 6 C0.8125 2.9375 0.8125 2.9375 0 0 Z " fill="#938E3E" transform="translate(258,144)"/>
<path d="M0 0 C1.98 0 3.96 0 6 0 C6.3403125 0.9590625 6.3403125 0.9590625 6.6875 1.9375 C7.85250896 4.27193661 7.85250896 4.27193661 10.625 4.75 C11.40875 4.8325 12.1925 4.915 13 5 C13 5.33 13 5.66 13 6 C12.21625 6.061875 11.4325 6.12375 10.625 6.1875 C9.75875 6.455625 8.8925 6.72375 8 7 C6.62533375 9.47636012 6.62533375 9.47636012 6 12 C5.566875 11.34 5.13375 10.68 4.6875 10 C3.8521875 9.01 3.8521875 9.01 3 8 C2.01 8 1.02 8 0 8 C0.33 7.01 0.66 6.02 1 5 C0.01 4.67 -0.98 4.34 -2 4 C-1.34 2.68 -0.68 1.36 0 0 Z " fill="#EDEDED" transform="translate(270,358)"/>
<path d="M0 0 C4.51496743 3.65497363 6.1570871 9.43677487 7 15 C7.99 15.33 8.98 15.66 10 16 C10 16.66 10 17.32 10 18 C10.61875 18.2475 11.2375 18.495 11.875 18.75 C14.35068687 20.20628639 14.95125002 21.37812506 16 24 C16.99 24 17.98 24 19 24 C19 25.32 19 26.64 19 28 C15.02667977 26.41991219 12.71759548 23.82284039 9.875 20.6875 C8.57175781 19.27017578 8.57175781 19.27017578 7.2421875 17.82421875 C5.13874101 15.17475567 4.05175143 13.17587688 3 10 C2.71898437 9.28457031 2.43796875 8.56914062 2.1484375 7.83203125 C1.89320313 7.16558594 1.63796875 6.49914062 1.375 5.8125 C1.11460937 5.13832031 0.85421875 4.46414063 0.5859375 3.76953125 C0 2 0 2 0 0 Z " fill="#614C87" transform="translate(209,263)"/>
<path d="M0 0 C0.99 0 1.98 0 3 0 C4.17673198 2.35346396 4.16623866 3.8806033 4.1875 6.5 C4.20167969 7.2940625 4.21585937 8.088125 4.23046875 8.90625 C4 11 4 11 2 13 C-0.58103306 13.17502995 -3.05308163 13.23162279 -5.6328125 13.1953125 C-6.76056595 13.19106766 -6.76056595 13.19106766 -7.91110229 13.18673706 C-10.31589578 13.17552874 -12.72031881 13.15042352 -15.125 13.125 C-16.75390088 13.11497102 -18.38280758 13.10584503 -20.01171875 13.09765625 C-24.00795556 13.07558735 -28.00391494 13.04105351 -32 13 C-32 12.67 -32 12.34 -32 12 C-20.78 11.67 -9.56 11.34 2 11 C1.34 8.69 0.68 6.38 0 4 C0 2.68 0 1.36 0 0 Z " fill="#CD8C73" transform="translate(337,185)"/>
<path d="M0 0 C6.81598387 -0.33278764 11.92122066 -0.24201565 18 3 C18 3.99 18 4.98 18 6 C16.52093108 6.02689216 15.04172517 6.04634621 13.5625 6.0625 C12.32693359 6.07990234 12.32693359 6.07990234 11.06640625 6.09765625 C9 6 9 6 8 5 C6.33382885 4.95936168 4.66611905 4.957279 3 5 C2.67 4.34 2.34 3.68 2 3 C3.65 2.67 5.3 2.34 7 2 C4.69 1.67 2.38 1.34 0 1 C0 0.67 0 0.34 0 0 Z " fill="#F0F0F0" transform="translate(135,358)"/>
<path d="M0 0 C1.4540625 0.0309375 1.4540625 0.0309375 2.9375 0.0625 C2.9375 0.7225 2.9375 1.3825 2.9375 2.0625 C1.2875 2.0625 -0.3625 2.0625 -2.0625 2.0625 C-2.0625 10.3125 -2.0625 18.5625 -2.0625 27.0625 C-3.0525 27.0625 -4.0425 27.0625 -5.0625 27.0625 C-4.92438078 22.74971615 -4.77571891 18.43736047 -4.625 14.125 C-4.56602539 12.27745117 -4.56602539 12.27745117 -4.50585938 10.39257812 C-4.46396484 9.22275391 -4.42207031 8.05292969 -4.37890625 6.84765625 C-4.34224854 5.76363525 -4.30559082 4.67961426 -4.26782227 3.56274414 C-3.96554773 -0.11810431 -3.77188684 0.07697728 0 0 Z " fill="#F2F2F2" transform="translate(297.0625,357.9375)"/>
<path d="M0 0 C1.2065625 0.0309375 1.2065625 0.0309375 2.4375 0.0625 C2.4375 0.7225 2.4375 1.3825 2.4375 2.0625 C1.1175 2.0625 -0.2025 2.0625 -1.5625 2.0625 C-1.5625 10.3125 -1.5625 18.5625 -1.5625 27.0625 C-2.2225 27.0625 -2.8825 27.0625 -3.5625 27.0625 C-3.59136537 22.75001391 -3.60925255 18.43755238 -3.625 14.125 C-3.63337891 12.89330078 -3.64175781 11.66160156 -3.65039062 10.39257812 C-3.65361328 9.22275391 -3.65683594 8.05292969 -3.66015625 6.84765625 C-3.66539307 5.76363525 -3.67062988 4.67961426 -3.67602539 3.56274414 C-3.52127885 0.15465951 -3.41882186 0.0833859 0 0 Z " fill="#EFEFEF" transform="translate(336.5625,357.9375)"/>
<path d="M0 0 C-3.08071952 3.0771703 -5.67765822 3.34123073 -9.94195557 3.33988953 C-11.09217194 3.31666374 -11.09217194 3.31666374 -12.265625 3.29296875 C-13.05902283 3.28872391 -13.85242065 3.28447906 -14.66986084 3.28010559 C-17.1969232 3.2633504 -19.72317983 3.22570506 -22.25 3.1875 C-23.96613429 3.17244903 -25.68228112 3.15876134 -27.3984375 3.14648438 C-31.59926746 3.11345735 -35.79949725 3.06169765 -40 3 C-40 2.34 -40 1.68 -40 1 C-39.13310547 1.01047363 -38.26621094 1.02094727 -37.37304688 1.03173828 C-34.12273153 1.06604813 -30.87250926 1.09100923 -27.62207031 1.10986328 C-26.22164858 1.11985248 -24.82124732 1.13344854 -23.42089844 1.15087891 C-17.35743752 1.22440161 -4.63814534 -2.31907267 0 0 Z " fill="#8F59A1" transform="translate(296,309)"/>
<path d="M0 0 C2.96052484 3.36423277 3.92289822 6.69159287 5 11 C2.03 11 -0.94 11 -4 11 C-3.39301257 6.87248551 -1.96189209 3.6678852 0 0 Z " fill="#E5E5E5" transform="translate(280,369)"/>
<path d="M0 0 C3.28220895 1.64110448 3.74570789 4.69322988 5 8 C5 8.99 5 9.98 5 11 C2.03 11 -0.94 11 -4 11 C-3.52269162 9.5410574 -3.04308958 8.08286504 -2.5625 6.625 C-2.29566406 5.81289063 -2.02882812 5.00078125 -1.75390625 4.1640625 C-1 2 -1 2 0 0 Z " fill="#E4E4E4" transform="translate(213,369)"/>
<path d="M0 0 C6.66319786 5.847702 9.58802839 15.52817034 11 24 C10.34 24 9.68 24 9 24 C0 4.93032787 0 4.93032787 0 0 Z " fill="#9C8D40" transform="translate(280,167)"/>
<path d="M0 0 C-0.33 0.99 -0.66 1.98 -1 3 C-5.76491196 4.72347879 -10.68592998 5.5587782 -15.66796875 6.4375 C-18.0284405 6.89911657 -18.0284405 6.89911657 -20.05078125 8.125 C-22.45777672 9.20549496 -23.56475408 8.86973069 -26 8 C-7.59683794 0 -7.59683794 0 0 0 Z " fill="#D9CC84" transform="translate(231,129)"/>
<path d="M0 0 C0.33 0 0.66 0 1 0 C1.02578125 1.06734375 1.0515625 2.1346875 1.078125 3.234375 C1.49005455 15.14386614 3.39338361 26.38540234 6 38 C2.72456609 36.36228304 2.10926316 33.38962355 0.83789062 30.07910156 C-0.70761469 24.39963972 -0.41262157 18.7168673 -0.25 12.875 C-0.23195312 11.63234375 -0.21390625 10.3896875 -0.1953125 9.109375 C-0.14858504 6.07209034 -0.08308591 3.03647061 0 0 Z " fill="#B7A27F" transform="translate(161,235)"/>
<path d="M0 0 C0.33 0.66 0.66 1.32 1 2 C0.48050781 2.67804688 -0.03898438 3.35609375 -0.57421875 4.0546875 C-5.11305069 10.11205656 -8.88631308 16.09899197 -12 23 C-12.99653986 20.37879818 -13.11297486 19.28887242 -12.07421875 16.6328125 C-11.61660156 15.80523437 -11.15898437 14.97765625 -10.6875 14.125 C-9.09967977 11.17556954 -7.92616085 8.74156298 -7 5.5 C-6 3 -6 3 -3.4375 1.6875 C-2.633125 1.460625 -1.82875 1.23375 -1 1 C-0.67 0.67 -0.34 0.34 0 0 Z " fill="#BDBC69" transform="translate(178,198)"/>
<path d="M0 0 C0.33 0 0.66 0 1 0 C1 6.27 1 12.54 1 19 C0.67 19 0.34 19 0 19 C0 17.35 0 15.7 0 14 C-0.66 14 -1.32 14 -2 14 C-2.33 12.02 -2.66 10.04 -3 8 C-3.99 8.66 -4.98 9.32 -6 10 C-4.34784004 6.42032008 -2.26875648 3.22017048 0 0 Z " fill="#EAEAEA" transform="translate(325,371)"/>
<path d="M0 0 C2 1 2 1 3.125 3.3125 C4 6 4 6 4 10 C4.66 10.33 5.32 10.66 6 11 C6 13.97 6 16.94 6 20 C1.71839111 16.86015348 1.14283328 13.45443243 0.3046875 8.484375 C-0.04491209 5.6337937 -0.15096832 2.86839805 0 0 Z " fill="#4D4372" transform="translate(203,243)"/>
<path d="M0 0 C2.64752004 2.57784846 4.94432065 4.91648098 7 8 C6.34 8 5.68 8 5 8 C4.67 9.32 4.34 10.64 4 12 C2.68 11.67 1.36 11.34 0 11 C0 7.37 0 3.74 0 0 Z " fill="#ECECEC" transform="translate(306,372)"/>
<path d="M0 0 C2.64 0 5.28 0 8 0 C8.33 2.31 8.66 4.62 9 7 C8.01 7 7.02 7 6 7 C6 5.35 6 3.7 6 2 C4.35 2 2.7 2 1 2 C0.7525 2.680625 0.505 3.36125 0.25 4.0625 C-1.24197908 7.56865083 -3.06835511 10.71620368 -5 14 C-5.33 13.34 -5.66 12.68 -6 12 C-4.78515625 9.1796875 -4.78515625 9.1796875 -3.0625 5.875 C-2.49660156 4.77929688 -1.93070312 3.68359375 -1.34765625 2.5546875 C-0.90292969 1.71164062 -0.45820313 0.86859375 0 0 Z " fill="#EDEDED" transform="translate(317,358)"/>
<path d="M0 0 C-2.6860286 1.79068573 -4.6626589 2.66055791 -7.6875 3.625 C-8.89986328 4.01558594 -8.89986328 4.01558594 -10.13671875 4.4140625 C-10.75160156 4.60742188 -11.36648437 4.80078125 -12 5 C-12 4.67 -12 4.34 -12 4 C-14.31 3.67 -16.62 3.34 -19 3 C-19 2.34 -19 1.68 -19 1 C-12.65758005 -0.15316726 -6.43311296 -0.09507063 0 0 Z " fill="#9C9769" transform="translate(239,174)"/>
<path d="M0 0 C-1.74420913 1.32018588 -3.49560091 2.63088602 -5.25 3.9375 C-6.22453125 4.66839844 -7.1990625 5.39929688 -8.203125 6.15234375 C-10.6267881 7.75345079 -12.1757492 8.57636238 -15 9 C-15 9.66 -15 10.32 -15 11 C-15.99 11 -16.98 11 -18 11 C-18 9.68 -18 8.36 -18 7 C-17.37351562 6.90203125 -16.74703125 6.8040625 -16.1015625 6.703125 C-14.87566406 6.47882813 -14.87566406 6.47882813 -13.625 6.25 C-12.81289063 6.11078125 -12.00078125 5.9715625 -11.1640625 5.828125 C-8.83504197 5.19555848 -8.83504197 5.19555848 -7.83203125 3.00390625 C-7.55746094 2.34261719 -7.28289062 1.68132812 -7 1 C-4.0449252 -1.00182486 -3.50436101 -1.16812034 0 0 Z " fill="#62719E" transform="translate(313,297)"/>
<path d="M0 0 C7.59 0 15.18 0 23 0 C18.89441282 2.05279359 17.19793315 2.2216942 12.75 2.125 C11.67234375 2.10695313 10.5946875 2.08890625 9.484375 2.0703125 C8.66453125 2.04710937 7.8446875 2.02390625 7 2 C7 2.66 7 3.32 7 4 C5.68 3.67 4.36 3.34 3 3 C3 2.34 3 1.68 3 1 C2.01 0.67 1.02 0.34 0 0 Z " fill="#A855A0" transform="translate(260,312)"/>
<path d="M0 0 C0.33 0 0.66 0 1 0 C1 7.59 1 15.18 1 23 C-2.54411942 19.45588058 -2.97872054 18.255488 -3.0625 13.3125 C-3.041875 12.219375 -3.02125 11.12625 -3 10 C-2.34 10.66 -1.68 11.32 -1 12 C-0.67 8.04 -0.34 4.08 0 0 Z " fill="#C9CC8D" transform="translate(160,237)"/>
<path d="M0 0 C0.721875 0.103125 1.44375 0.20625 2.1875 0.3125 C-0.41160236 3.01989829 -3.14409684 5.55859498 -5.9375 8.0625 C-6.62070313 8.67609375 -7.30390625 9.2896875 -8.0078125 9.921875 C-9.8125 11.3125 -9.8125 11.3125 -11.8125 11.3125 C-12.1425 9.9925 -12.4725 8.6725 -12.8125 7.3125 C-11.7296875 6.9721875 -11.7296875 6.9721875 -10.625 6.625 C-7.62175886 5.43158844 -7.62175886 5.43158844 -5.3125 2.6875 C-2.8125 0.3125 -2.8125 0.3125 0 0 Z " fill="#83446A" transform="translate(223.8125,178.6875)"/>
<path d="M0 0 C1.54753747 2.9134075 2.66269331 5.78327253 3.625 8.9375 C3.88539063 9.77152344 4.14578125 10.60554688 4.4140625 11.46484375 C5.01494131 14.06464605 5.10462243 16.34163909 5 19 C4.01 18.67 3.02 18.34 2 18 C1.015625 15.234375 1.015625 15.234375 0.25 11.75 C-0.14445313 10.04070312 -0.14445313 10.04070312 -0.546875 8.296875 C-0.98045522 5.14220509 -0.84561678 3.0396495 0 0 Z " fill="#8A4760" transform="translate(164,253)"/>
<path d="M0 0 C2.24940295 -0.08119503 4.49964871 -0.13927819 6.75 -0.1875 C8.00296875 -0.22230469 9.2559375 -0.25710938 10.546875 -0.29296875 C14.14109357 0.01197061 15.44725126 0.54394629 18 3 C15.75006641 3.02707139 13.50003905 3.04642829 11.25 3.0625 C9.99703125 3.07410156 8.7440625 3.08570313 7.453125 3.09765625 C4.71463499 3.02021027 2.58119707 2.82780815 0 2 C0 1.34 0 0.68 0 0 Z " fill="#E0E0E0" transform="translate(231,361)"/>
<path d="M0 0 C2.94544195 2.6776745 4.87729807 4.93781593 5.12109375 9.03515625 C5.12460114 11.02384409 5.0662529 13.01241298 5 15 C7.475 15.99 7.475 15.99 10 17 C9.34 17.33 8.68 17.66 8 18 C4.59732532 16.5606104 3.26499414 15.65118013 1.85546875 12.1875 C1.63503906 11.135625 1.41460937 10.08375 1.1875 9 C0.95417969 7.948125 0.72085937 6.89625 0.48046875 5.8125 C0 3 0 3 0 0 Z " fill="#D59A53" transform="translate(288,179)"/>
<path d="M0 0 C0.66 0.66 1.32 1.32 2 2 C0.61400426 3.77854356 -0.78423732 5.54754809 -2.1875 7.3125 C-2.96480469 8.29863281 -3.74210937 9.28476562 -4.54296875 10.30078125 C-6.88975776 12.87889127 -8.92899369 14.40176759 -12 16 C-11.42655063 13.13275314 -11.1385485 12.1385485 -9 10 C-8.01 10 -7.02 10 -6 10 C-5.34 8.35 -4.68 6.7 -4 5 C-3.34 5 -2.68 5 -2 5 C-1.855625 4.360625 -1.71125 3.72125 -1.5625 3.0625 C-1 1 -1 1 0 0 Z " fill="#5D7199" transform="translate(325,280)"/>
<path d="M0 0 C-0.33 0.66 -0.66 1.32 -1 2 C-3.63797183 2.66982059 -6.20138895 3.21554953 -8.875 3.6875 C-9.60847656 3.82994141 -10.34195313 3.97238281 -11.09765625 4.11914062 C-14.50730951 4.74331212 -16.66186696 5.11271101 -20 4 C-13.08856084 0.30318371 -7.68663531 -0.15071834 0 0 Z " fill="#744A50" transform="translate(228,177)"/>
<path d="M0 0 C-0.33 0.99 -0.66 1.98 -1 3 C-2.71484375 3.84375 -2.71484375 3.84375 -4.9375 4.5 C-5.73929688 4.74363281 -6.54109375 4.98726562 -7.3671875 5.23828125 C-8.67042969 5.61533203 -8.67042969 5.61533203 -10 6 C-11.85419071 6.56242073 -13.70835807 7.12491847 -15.5625 7.6875 C-17.04125215 8.12639904 -18.52026655 8.56442084 -20 9 C-20 8.34 -20 7.68 -20 7 C-18.845 6.5875 -17.69 6.175 -16.5 5.75 C-12.776507 4.37019497 -9.33361712 2.68610697 -5.859375 0.76953125 C-4 0 -4 0 0 0 Z " fill="#A29C5F" transform="translate(220,175)"/>
<path d="M0 0 C0.66 0 1.32 0 2 0 C2.33 0.99 2.66 1.98 3 3 C-1.18461538 7.92307692 -1.18461538 7.92307692 -5.3125 8.3125 C-6.6428125 8.1578125 -6.6428125 8.1578125 -8 8 C-8.33 7.34 -8.66 6.68 -9 6 C-7.88625 5.566875 -6.7725 5.13375 -5.625 4.6875 C-1.82487666 3.30088881 -1.82487666 3.30088881 0 0 Z " fill="#EFEFEF" transform="translate(253,378)"/>
<path d="M0 0 C2.25 0.125 2.25 0.125 5 1 C6.38123963 2.96722008 7.71488126 4.96868328 9 7 C11.10039331 8.38868516 11.10039331 8.38868516 13 9 C13 9.66 13 10.32 13 11 C13.99 11.33 14.98 11.66 16 12 C15.67 12.66 15.34 13.32 15 14 C10.94772191 12.38873705 8.23778153 9.49978002 5.25 6.4375 C4.74339844 5.93025391 4.23679688 5.42300781 3.71484375 4.90039062 C0 1.14048812 0 1.14048812 0 0 Z " fill="#A4668C" transform="translate(178,287)"/>
<path d="M0 0 C15.20689655 1.20689655 15.20689655 1.20689655 20 6 C12.31345427 5.74378181 6.64783942 4.96313504 0 1 C0 0.67 0 0.34 0 0 Z " fill="#B56999" transform="translate(204,308)"/>
<path d="M0 0 C1.5625 1.125 1.5625 1.125 3 3 C2.6875 6.1875 2.6875 6.1875 2 9 C0.35 9 -1.3 9 -3 9 C-2.67 6.69 -2.34 4.38 -2 2 C-1.34 2 -0.68 2 0 2 C0 1.34 0 0.68 0 0 Z " fill="#FBFBFB" transform="translate(272,365)"/>
<path d="M0 0 C-1.16369126 3.49107379 -1.88973538 3.85222763 -4.9375 5.6875 C-5.64777344 6.12449219 -6.35804688 6.56148437 -7.08984375 7.01171875 C-9 8 -9 8 -11 8 C-10.875 6.25 -10.875 6.25 -10 4 C-6.33306034 1.06644827 -4.76869466 0 0 0 Z " fill="#ACAF62" transform="translate(200,182)"/>
<path d="M0 0 C4.5709311 3.59144586 6.30582991 8.60208572 8 14 C8 14.99 8 15.98 8 17 C4.88916464 15.2371933 4.06648225 14.19205985 2.875 10.75 C2.58625 9.5125 2.2975 8.275 2 7 C1.63242303 5.6854018 1.25771603 4.37277085 0.875 3.0625 C0.58625 2.051875 0.2975 1.04125 0 0 Z " fill="#7C4884" transform="translate(205,259)"/>
<path d="M0 0 C0.66 0.33 1.32 0.66 2 1 C1.01 2.485 1.01 2.485 0 4 C-0.66 4 -1.32 4 -2 4 C-2.061875 4.53625 -2.12375 5.0725 -2.1875 5.625 C-3.38027382 9.11156962 -5.56197166 11.24940393 -8 14 C-8.33 13.01 -8.66 12.02 -9 11 C-7.3828125 8.5546875 -7.3828125 8.5546875 -5.125 5.875 C-4.38507813 4.98554688 -3.64515625 4.09609375 -2.8828125 3.1796875 C-1 1 -1 1 0 0 Z " fill="#77365B" transform="translate(181,200)"/>
<path d="M0 0 C-1.3881735 3.12857014 -3.01101878 5.28189174 -5.4375 7.6875 C-6.03433594 8.28949219 -6.63117188 8.89148438 -7.24609375 9.51171875 C-9 11 -9 11 -12 12 C-10.53033642 8.60140297 -8.61962486 6.35036291 -6 3.75 C-5.29875 3.04359375 -4.5975 2.3371875 -3.875 1.609375 C-2 0 -2 0 0 0 Z " fill="#DCD2D8" transform="translate(222,183)"/>
<path d="M0 0 C0.66 0 1.32 0 2 0 C3.76171875 2.5546875 3.76171875 2.5546875 5.6875 5.875 C6.33074219 6.96554688 6.97398437 8.05609375 7.63671875 9.1796875 C8.08660156 10.11039063 8.53648437 11.04109375 9 12 C8.67 12.66 8.34 13.32 8 14 C7.01 13.67 6.02 13.34 5 13 C4.05078125 10.93359375 4.05078125 10.93359375 3.3125 8.4375 C3.06113281 7.61121094 2.80976563 6.78492188 2.55078125 5.93359375 C2.36902344 5.29550781 2.18726563 4.65742188 2 4 C1.01 4.495 1.01 4.495 0 5 C0 3.35 0 1.7 0 0 Z " fill="#73728D" transform="translate(202,240)"/>
<path d="M0 0 C0.33 1.32 0.66 2.64 1 4 C-0.0828125 4.7734375 -0.0828125 4.7734375 -1.1875 5.5625 C-4.50056842 8.43382597 -6.55715737 11.3706338 -9 15 C-9.66 14.67 -10.32 14.34 -11 14 C-9.54362329 12.04018443 -8.08499848 10.08211453 -6.625 8.125 C-6.2125 7.56941406 -5.8 7.01382813 -5.375 6.44140625 C-3.6745427 4.1649876 -2.0120881 2.0120881 0 0 Z " fill="#7D504A" transform="translate(182,196)"/>
<path d="M0 0 C6.27 0 12.54 0 19 0 C19 0.33 19 0.66 19 1 C14.38 1 9.76 1 5 1 C5 1.66 5 2.32 5 3 C3.02 3.66 1.04 4.32 -1 5 C-0.67 3.35 -0.34 1.7 0 0 Z " fill="#A7A73E" transform="translate(215,134)"/>
<path d="M0 0 C1.7074998 1.28062485 3.37373596 2.61767557 5 4 C5 4.66 5 5.32 5 6 C5.99 6 6.98 6 8 6 C8 7.32 8 8.64 8 10 C4.63362603 8.5572683 2.33497429 6.83532593 0 4 C0 2.68 0 1.36 0 0 Z " fill="#5C5692" transform="translate(220,281)"/>
<path d="M0 0 C0 0.66 0 1.32 0 2 C-2 4 -2 4 -4.625 4.125 C-5.40875 4.08375 -6.1925 4.0425 -7 4 C-7 3.34 -7 2.68 -7 2 C-8.32 1.67 -9.64 1.34 -11 1 C-3.57142857 -1.42857143 -3.57142857 -1.42857143 0 0 Z " fill="#743764" transform="translate(219,181)"/>
<path d="M0 0 C1 1.33333333 2 2.66666667 3 4 C3.53625 4.598125 4.0725 5.19625 4.625 5.8125 C6.49116654 8.78140131 6.66822717 11.54956258 7 15 C3.773655 11.19752197 1.22464781 7.44929561 -1 3 C-0.67 2.01 -0.34 1.02 0 0 Z " fill="#CB9C49" transform="translate(281,164)"/>
<path d="M0 0 C0.66 0 1.32 0 2 0 C2.93065133 2.60582371 3.14917407 3.64198224 2.0625 6.25 C1.5365625 7.11625 1.5365625 7.11625 1 8 C-0.32 8 -1.64 8 -3 8 C-1.125 2.25 -1.125 2.25 0 0 Z " fill="#F9F9F9" transform="translate(206,366)"/>
<path d="M0 0 C3.82097239 0.53069061 6.06171403 1.49701566 9 4 C8.67 4.66 8.34 5.32 8 6 C5.36 5.01 2.72 4.02 0 3 C0 2.01 0 1.02 0 0 Z " fill="#F6F6F6" transform="translate(245,359)"/>
<path d="M0 0 C4.77135213 3.57851409 7.29076328 6.68572797 10 12 C9.01 12.33 8.02 12.66 7 13 C6.896875 12.38125 6.79375 11.7625 6.6875 11.125 C6.12474627 8.63473516 6.12474627 8.63473516 3 7 C0 2.55555556 0 2.55555556 0 0 Z " fill="#944C8C" transform="translate(214,278)"/>
<path d="M0 0 C0.99 0 1.98 0 3 0 C4.20272819 2.40545638 4.10071472 3.94996953 4.0625 6.625 C4.05347656 7.44226563 4.04445313 8.25953125 4.03515625 9.1015625 C4.02355469 9.72804687 4.01195312 10.35453125 4 11 C3.34 11 2.68 11 2 11 C0.80712589 7.12315913 0 4.08378077 0 0 Z " fill="#C97965" transform="translate(337,185)"/>
<path d="M0 0 C1.20759446 4.03681576 0.52329311 6.03943791 -1 10 C-1.5421953 11.45813687 -2.08385097 12.91647451 -2.625 14.375 C-3.305625 16.169375 -3.305625 16.169375 -4 18 C-5.72251754 13.9154674 -4.07280563 10.63026304 -2.5625 6.75 C-2.31951172 6.1003125 -2.07652344 5.450625 -1.82617188 4.78125 C-1.22714006 3.18383183 -0.61485679 1.59139406 0 0 Z " fill="#C6D195" transform="translate(162,181)"/>
<path d="M0 0 C1.45880109 0.14107747 2.91703551 0.28802415 4.375 0.4375 C5.59316406 0.55931641 5.59316406 0.55931641 6.8359375 0.68359375 C9 1 9 1 11 2 C10.67 2.99 10.34 3.98 10 5 C8.51800098 4.55090939 7.03944764 4.09043436 5.5625 3.625 C4.73878906 3.36976563 3.91507813 3.11453125 3.06640625 2.8515625 C1 2 1 2 0 0 Z " fill="#A4519E" transform="translate(245,307)"/>
<path d="M0 0 C0.66 0.33 1.32 0.66 2 1 C3.87056791 1.2275015 5.74685958 1.40962811 7.625 1.5625 C8.62789062 1.64628906 9.63078125 1.73007812 10.6640625 1.81640625 C11.43492187 1.87699219 12.20578125 1.93757813 13 2 C13 2.33 13 2.66 13 3 C9.04 3 5.08 3 1 3 C1.33 4.32 1.66 5.64 2 7 C1.34 7 0.68 7 0 7 C-0.33 6.01 -0.66 5.02 -1 4 C-1.99 4.495 -1.99 4.495 -3 5 C-1.125 1.125 -1.125 1.125 0 0 Z " fill="#E3E3E3" transform="translate(141,369)"/>
<path d="M0 0 C0.66 0 1.32 0 2 0 C2 0.66 2 1.32 2 2 C0.67732273 3.01405257 -0.65724831 4.01268258 -2 5 C-2.99 6.485 -2.99 6.485 -4 8 C-4.66 7.34 -5.32 6.68 -6 6 C-6.66 6.66 -7.32 7.32 -8 8 C-7.67 6.35 -7.34 4.7 -7 3 C-5.5459375 2.5359375 -5.5459375 2.5359375 -4.0625 2.0625 C-1.15934208 1.30476658 -1.15934208 1.30476658 0 0 Z " fill="#F0F0F0" transform="translate(133,362)"/>
<path d="M0 0 C2.62571005 -0.38613383 4.3843879 -0.38493778 6.66796875 1.04296875 C8.3125 2.375 8.3125 2.375 11 5 C11 5.66 11 6.32 11 7 C6.00724943 5.72278474 3.42388092 3.82669043 0 0 Z " fill="#B880A4" transform="translate(193,301)"/>
<path d="M0 0 C0.66 0.33 1.32 0.66 2 1 C-0.99481865 5.22797927 -0.99481865 5.22797927 -3 7 C-6.3125 7.375 -6.3125 7.375 -9 7 C-6.25604436 4.05278838 -3.61662784 1.80831392 0 0 Z " fill="#767F9D" transform="translate(280,262)"/>
<path d="M0 0 C0.33 0 0.66 0 1 0 C1 4.62 1 9.24 1 14 C-2.52447552 9.3006993 -2.52447552 9.3006993 -2 5 C-1 2.1875 -1 2.1875 0 0 Z " fill="#C3D162" transform="translate(159,237)"/>
<path d="M0 0 C-0.0625 1.75 -0.0625 1.75 -1 4 C-3.25123006 5.72518887 -5.40134903 6.76906007 -8 8 C-8.66 7.67 -9.32 7.34 -10 7 C-8.71372289 5.82739389 -7.42080217 4.6620717 -6.125 3.5 C-5.04605469 2.52546875 -5.04605469 2.52546875 -3.9453125 1.53125 C-2 0 -2 0 0 0 Z " fill="#B7C284" transform="translate(192,147)"/>
<path d="M0 0 C5.44208234 0.34013015 8.93668198 3.70296528 13 7 C9.25 8.125 9.25 8.125 7 7 C7 6.34 7 5.68 7 5 C6.01 4.67 5.02 4.34 4 4 C4 3.34 4 2.68 4 2 C2.68 1.34 1.36 0.68 0 0 Z " fill="#D49567" transform="translate(297,140)"/>
<path d="M0 0 C0.33 0.99 0.66 1.98 1 3 C-0.59825639 6.19651277 -2.44988427 8.53584323 -5 11 C-4.74445946 9.53890937 -4.46999628 8.08111904 -4.1875 6.625 C-4.03667969 5.81289062 -3.88585937 5.00078125 -3.73046875 4.1640625 C-3 2 -3 2 0 0 Z " fill="#BACD65" transform="translate(167,177)"/>
<path d="M0 0 C1.47919922 0.06960937 1.47919922 0.06960937 2.98828125 0.140625 C3.98214844 0.17671875 4.97601563 0.2128125 6 0.25 C7.13888672 0.31960937 7.13888672 0.31960937 8.30078125 0.390625 C8.30078125 0.720625 8.30078125 1.050625 8.30078125 1.390625 C7.16640625 1.514375 6.03203125 1.638125 4.86328125 1.765625 C3.09984375 2.075 3.09984375 2.075 1.30078125 2.390625 C0.97078125 3.050625 0.64078125 3.710625 0.30078125 4.390625 C-1.67921875 4.390625 -3.65921875 4.390625 -5.69921875 4.390625 C-4.03190196 1.4998505 -3.38689549 0.49014407 0 0 Z " fill="#F3CD51" transform="translate(233.69921875,128.609375)"/>
<path d="M0 0 C1.79240663 0.11389875 3.58394835 0.24147687 5.375 0.375 C6.87160156 0.47941406 6.87160156 0.47941406 8.3984375 0.5859375 C11 1 11 1 13 3 C8.02398374 4.71050559 4.57383705 3.00885647 0 1 C0 0.67 0 0.34 0 0 Z " fill="#C38CB2" transform="translate(216,313)"/>
<path d="M0 0 C0.33 0 0.66 0 1 0 C0.91266424 1.60517097 0.80447776 3.20921662 0.6875 4.8125 C0.62949219 5.70582031 0.57148438 6.59914062 0.51171875 7.51953125 C-0.06313581 10.30604 -0.8206856 11.24135754 -3 13 C-2.52060632 8.28596212 -2.03165952 4.33420699 0 0 Z " fill="#865B4E" transform="translate(166,219)"/>
<path d="M0 0 C2.5938187 2.27323437 3.68311469 4.23402458 4.75 7.5 C5.01296875 8.2734375 5.2759375 9.046875 5.546875 9.84375 C6 12 6 12 5 15 C4.16260219 12.8765984 3.33019717 10.7512272 2.5 8.625 C1.80390625 6.84996094 1.80390625 6.84996094 1.09375 5.0390625 C0 2 0 2 0 0 Z " fill="#8C8C40" transform="translate(280,167)"/>
<path d="M0 0 C1.98 0 3.96 0 6 0 C6 0.66 6 1.32 6 2 C6.99 2.66 7.98 3.32 9 4 C7.3125 4.8125 7.3125 4.8125 5 5 C2.25 2.5625 2.25 2.5625 0 0 Z " fill="#E1E1E1" transform="translate(138,381)"/>
<path d="M0 0 C1.98 0.66 3.96 1.32 6 2 C6 2.99 6 3.98 6 5 C3.36 5 0.72 5 -2 5 C-0.68 4.67 0.64 4.34 2 4 C2 3.34 2 2.68 2 2 C1.34 2 0.68 2 0 2 C0 1.34 0 0.68 0 0 Z " fill="#DBDBDB" transform="translate(147,359)"/>
<path d="M0 0 C0.98120464 3.05263664 0.98120464 4.94736336 0 8 C-0.66 8 -1.32 8 -2 8 C-2.33 8.66 -2.66 9.32 -3 10 C-3.33 9.01 -3.66 8.02 -4 7 C-3.34 7 -2.68 7 -2 7 C-2.04125 6.21625 -2.0825 5.4325 -2.125 4.625 C-2 2 -2 2 0 0 Z " fill="#586888" transform="translate(334,266)"/>
<path d="M0 0 C0.33 0.66 0.66 1.32 1 2 C-0.98 4.64 -2.96 7.28 -5 10 C-6 7 -6 7 -5.3125 5 C-3.82522999 2.73368379 -2.24230766 1.49487177 0 0 Z " fill="#BAB16D" transform="translate(178,198)"/>
<path d="M0 0 C3.73884332 2.65654657 5.64978174 4.58110387 7 9 C4.0625 7.875 4.0625 7.875 1 6 C0.125 2.8125 0.125 2.8125 0 0 Z " fill="#D59980" transform="translate(321,158)"/>
<path d="M0 0 C1 2 1 2 0.375 4.5 C-1 7 -1 7 -3.625 8.3125 C-4.40875 8.539375 -5.1925 8.76625 -6 9 C-4.47291037 5.56404834 -2.40072955 2.88087546 0 0 Z " fill="#BEC891" transform="translate(178,158)"/>
<path d="M0 0 C0.66 0.33 1.32 0.66 2 1 C1.67 2.65 1.34 4.3 1 6 C-0.32 6.33 -1.64 6.66 -3 7 C-3.33 6.34 -3.66 5.68 -4 5 C-3.525625 4.54625 -3.05125 4.0925 -2.5625 3.625 C-0.90972192 2.06741796 -0.90972192 2.06741796 0 0 Z " fill="#E2E2E2" transform="translate(186,369)"/>
<path d="M0 0 C2.31 0 4.62 0 7 0 C7.33 2.31 7.66 4.62 8 7 C7.01 7 6.02 7 5 7 C5 5.02 5 3.04 5 1 C3.35 1 1.7 1 0 1 C0 0.67 0 0.34 0 0 Z " fill="#E5E5E5" transform="translate(318,358)"/>
<path d="M0 0 C4.29 0.33 8.58 0.66 13 1 C13 1.33 13 1.66 13 2 C11.02 2 9.04 2 7 2 C7 2.66 7 3.32 7 4 C5.68 3.67 4.36 3.34 3 3 C3 2.34 3 1.68 3 1 C2.01 0.67 1.02 0.34 0 0 Z " fill="#B9509E" transform="translate(260,312)"/>
<path d="M0 0 C-1.25 1.5 -1.25 1.5 -3 3 C-4.32 3 -5.64 3 -7 3 C-7.33 3.66 -7.66 4.32 -8 5 C-8.33 4.01 -8.66 3.02 -9 2 C-3.375 -1.125 -3.375 -1.125 0 0 Z " fill="#78365F" transform="translate(208,184)"/>
<path d="M0 0 C0 0.66 0 1.32 0 2 C-2.31 2.66 -4.62 3.32 -7 4 C-7.99 3.01 -8.98 2.02 -10 1 C-6.59437148 0.22157062 -3.49234244 -0.09978121 0 0 Z " fill="#866A65" transform="translate(234,175)"/>
<path d="M0 0 C0.66 0 1.32 0 2 0 C2.66 1.98 3.32 3.96 4 6 C3.01 6.66 2.02 7.32 1 8 C-0.35439668 5.29120665 -0.06501451 2.99066732 0 0 Z " fill="#DB7A3D" transform="translate(313,152)"/>
<path d="M0 0 C1.60517097 0.08733576 3.20921662 0.19552224 4.8125 0.3125 C6.15248047 0.39951172 6.15248047 0.39951172 7.51953125 0.48828125 C10.30604 1.06313581 11.24135754 1.8206856 13 4 C8.51474352 3.343621 4.33085971 2.29925791 0 1 C0 0.67 0 0.34 0 0 Z " fill="#B6BEA1" transform="translate(260,175)"/>
<path d="M0 0 C-0.33 1.32 -0.66 2.64 -1 4 C-1.598125 4.144375 -2.19625 4.28875 -2.8125 4.4375 C-4.56150404 4.8872439 -6.28677023 5.42892341 -8 6 C-8 5.34 -8 4.68 -8 4 C-2.58823529 0 -2.58823529 0 0 0 Z " fill="#A8BC52" transform="translate(193,150)"/>
<path d="M0 0 C-3.06117568 2.62386487 -3.73173127 3 -8 3 C-8 2.01 -8 1.02 -8 0 C-2.25 -1.125 -2.25 -1.125 0 0 Z " fill="#AB93B4" transform="translate(296,309)"/>
<path d="M0 0 C0.99 0.33 1.98 0.66 3 1 C4.1875 4.0625 4.1875 4.0625 5 7 C3 7 3 7 1.375 5.75 C0 4 0 4 0 0 Z " fill="#CF9183" transform="translate(332,174)"/>
<path d="M0 0 C7.50769231 -0.36923077 7.50769231 -0.36923077 10 1.5 C10.495 2.2425 10.495 2.2425 11 3 C9.741875 2.87625 8.48375 2.7525 7.1875 2.625 C6.12595703 2.52058594 6.12595703 2.52058594 5.04296875 2.4140625 C3 2 3 2 0 0 Z " fill="#CFBB48" transform="translate(238,135)"/>
<path d="M0 0 C0.33 0 0.66 0 1 0 C0.67 2.31 0.34 4.62 0 7 C-1.32 6.67 -2.64 6.34 -4 6 C-3.34 5.01 -2.68 4.02 -2 3 C-1.34 3 -0.68 3 0 3 C0 2.01 0 1.02 0 0 Z " fill="#F0F0F0" transform="translate(147,377)"/>
<path d="M0 0 C0.33 0 0.66 0 1 0 C1 1.65 1 3.3 1 5 C2.32 5.66 3.64 6.32 5 7 C5 7.33 5 7.66 5 8 C3.35 8 1.7 8 0 8 C0 5.36 0 2.72 0 0 Z " fill="#DADADA" transform="translate(174,368)"/>
<path d="M0 0 C0.66 0.66 1.32 1.32 2 2 C0.71937515 3.7074998 -0.61767557 5.37373596 -2 7 C-2.66 7 -3.32 7 -4 7 C-4 6.34 -4 5.68 -4 5 C-3.34 5 -2.68 5 -2 5 C-1.7834375 4.0409375 -1.7834375 4.0409375 -1.5625 3.0625 C-1 1 -1 1 0 0 Z " fill="#51668F" transform="translate(325,280)"/>
<path d="M0 0 C0.33 1.32 0.66 2.64 1 4 C-0.98 5.32 -2.96 6.64 -5 8 C-5 5 -5 5 -2.5 2.3125 C-1.675 1.549375 -0.85 0.78625 0 0 Z " fill="#B7C163" transform="translate(181,193)"/>
</svg>
